<?xml version="1.0" standalone="no"?>
<!DOCTYPE svg PUBLIC "-//W3C//DTD SVG 20010904//EN"
 "http://www.w3.org/TR/2001/REC-SVG-20010904/DTD/svg10.dtd">
<svg version="1.0" xmlns="http://www.w3.org/2000/svg"
 width="260.000000pt" height="260.000000pt" viewBox="0 0 260.000000 260.000000"
 preserveAspectRatio="xMidYMid meet">
<metadata>
Created by potrace 1.11, written by Peter Selinger 2001-2013
</metadata>
<g transform="translate(0.000000,260.000000) scale(0.100000,-0.100000)"
fill="#000000" stroke="none">
<path d="M1268 1843 c29 -2 74 -2 100 0 26 2 2 3 -53 3 -55 0 -76 -1 -47 -3z"/>
<path d="M1113 1816 c-34 -13 -84 -37 -111 -55 -61 -39 -160 -141 -195 -202
-29 -49 -67 -152 -67 -178 0 -9 13 20 28 64 34 100 76 166 150 237 70 67 132
104 225 134 40 13 63 23 52 23 -11 0 -48 -10 -82 -23z"/>
<path d="M1440 1830 c34 -11 60 -11 35 0 -11 5 -29 8 -40 8 -16 0 -15 -2 5 -8z"/>
<path d="M1555 1792 c33 -16 83 -46 110 -66 49 -36 49 -36 13 -3 -40 36 -117
81 -158 91 -14 4 2 -6 35 -22z"/>
<path d="M1744 1655 c26 -33 26 -36 10 -60 -14 -21 -16 -41 -11 -105 4 -48 2
-82 -3 -85 -7 -4 -8 -48 -4 -116 6 -98 5 -111 -11 -129 -17 -19 -18 -26 -7
-66 18 -67 15 -85 -7 -48 -10 17 -34 42 -53 55 -18 13 -35 27 -39 31 -6 9 -81
-67 -98 -99 -6 -12 -11 -37 -11 -56 0 -48 -8 -50 -40 -13 -29 32 -29 32 -32
197 -4 199 -7 208 -118 302 -51 43 -80 75 -80 88 0 11 -4 17 -10 14 -5 -3 -10
-14 -10 -24 0 -9 -27 -39 -60 -67 -104 -85 -129 -137 -130 -265 0 -56 -3 -69
-24 -88 -14 -13 -30 -37 -37 -54 -7 -18 -14 -34 -16 -36 -2 -3 -23 14 -47 38
l-43 42 -39 -35 c-21 -19 -42 -33 -46 -30 -13 8 -9 -4 17 -56 27 -54 120 -170
136 -170 6 0 7 5 4 10 -3 6 -1 10 5 10 7 0 10 -7 6 -15 -14 -38 207 -147 293
-144 14 0 -1 6 -34 14 -33 7 -76 20 -95 28 -33 14 -19 15 205 15 224 0 238 -1
205 -15 -19 -8 -62 -21 -95 -28 -40 -9 -50 -14 -30 -14 88 -2 351 135 329 171
-3 5 0 7 7 6 7 -2 36 29 64 68 61 84 109 215 102 279 l-4 40 -1 -42 c-1 -24
-6 -43 -12 -43 -24 0 -25 101 -2 180 l10 35 3 -45 2 -45 4 38 c5 44 -18 131
-54 202 -24 47 -110 165 -121 165 -2 0 8 -16 22 -35z m59 -220 c4 -8 2 -17 -3
-20 -6 -4 -10 3 -10 14 0 25 6 27 13 6z m76 -33 c1 -7 -3 -10 -9 -7 -5 3 -10
18 -9 33 0 24 1 25 9 7 5 -11 9 -26 9 -33z m-42 16 c-3 -8 -6 -5 -6 6 -1 11 2
17 5 13 3 -3 4 -12 1 -19z m-737 -228 c0 -5 -4 -10 -10 -10 -5 0 -10 5 -10 10
0 6 5 10 10 10 6 0 10 -4 10 -10z m140 -106 c0 -24 -5 -44 -10 -44 -13 0 -29
40 -24 58 12 38 15 43 24 37 5 -3 10 -26 10 -51z m52 34 c8 -23 1 -72 -10 -76
-8 -2 -12 12 -12 42 0 43 12 62 22 34z m48 -39 c0 -31 -4 -48 -10 -44 -5 3
-10 26 -10 51 0 24 5 44 10 44 6 0 10 -23 10 -51z m50 -4 c0 -19 -4 -37 -10
-40 -6 -4 -10 12 -10 40 0 28 4 44 10 40 6 -3 10 -21 10 -40z m27 -32 c-2 -16
-4 -5 -4 22 0 28 2 40 4 28 2 -13 2 -35 0 -50z m379 -99 c-4 -14 -9 -24 -12
-21 -3 2 -2 17 2 31 3 15 9 25 11 22 3 -3 2 -17 -1 -32z m-749 -56 c-3 -7 -5
-2 -5 12 0 14 2 19 5 13 2 -7 2 -19 0 -25z m49 5 c-10 -10 -19 5 -10 18 6 11
8 11 12 0 2 -7 1 -15 -2 -18z m54 5 c0 -16 -3 -19 -11 -11 -6 6 -8 16 -5 22
11 17 16 13 16 -11z m37 -20 c-3 -7 -5 -2 -5 12 0 14 2 19 5 13 2 -7 2 -19 0
-25z m413 -28 c0 -11 -4 -20 -10 -20 -5 0 -10 9 -10 20 0 11 5 20 10 20 6 0
10 -9 10 -20z m50 0 c0 -11 -4 -20 -10 -20 -5 0 -10 9 -10 20 0 11 5 20 10 20
6 0 10 -9 10 -20z m50 -6 c0 -14 -4 -23 -10 -19 -5 3 -10 15 -10 26 0 10 5 19
10 19 6 0 10 -12 10 -26z m-140 1 c0 -8 -4 -15 -10 -15 -5 0 -10 7 -10 15 0 8
5 15 10 15 6 0 10 -7 10 -15z"/>
<path d="M735 1250 c2 -101 18 -200 31 -188 2 2 -1 20 -7 39 -6 19 -15 86 -19
149 l-8 115 3 -115z"/>
<path d="M390 500 l0 -60 40 0 c22 0 40 5 40 10 0 6 -13 10 -30 10 -29 0 -30
1 -30 50 0 28 -4 50 -10 50 -6 0 -10 -27 -10 -60z"/>
<path d="M710 550 c0 -5 5 -10 10 -10 6 0 10 5 10 10 0 6 -4 10 -10 10 -5 0
-10 -4 -10 -10z"/>
<path d="M950 541 c0 -14 -5 -18 -19 -14 -27 7 -47 -31 -33 -63 8 -17 19 -22
41 -22 31 1 31 1 31 60 0 32 -4 58 -10 58 -5 0 -10 -9 -10 -19z m0 -56 c0 -18
-5 -25 -20 -25 -15 0 -20 7 -20 25 0 18 5 25 20 25 15 0 20 -7 20 -25z"/>
<path d="M1080 500 c0 -33 4 -60 10 -60 6 0 10 27 10 60 0 33 -4 60 -10 60 -6
0 -10 -27 -10 -60z"/>
<path d="M1120 500 c0 -33 4 -60 10 -60 6 0 10 27 10 60 0 33 -4 60 -10 60 -6
0 -10 -27 -10 -60z"/>
<path d="M1350 541 c0 -14 -5 -18 -19 -14 -27 7 -47 -31 -33 -63 8 -17 19 -22
41 -22 31 1 31 1 31 60 0 32 -4 58 -10 58 -5 0 -10 -9 -10 -19z m0 -56 c0 -18
-5 -25 -20 -25 -15 0 -20 7 -20 25 0 18 5 25 20 25 15 0 20 -7 20 -25z"/>
<path d="M1960 500 c0 -33 4 -60 10 -60 6 0 10 27 10 60 0 33 -4 60 -10 60 -6
0 -10 -27 -10 -60z"/>
<path d="M747 537 c-8 -20 7 -90 20 -94 9 -3 11 4 6 27 -4 21 -2 35 7 40 11 7
10 11 -3 24 -19 19 -23 20 -30 3z"/>
<path d="M499 514 c-11 -13 -9 -14 14 -9 34 9 35 -2 2 -15 -40 -15 -26 -44 23
-45 18 -1 22 4 22 30 0 49 -34 71 -61 39z m41 -44 c0 -5 -7 -10 -15 -10 -8 0
-15 5 -15 10 0 6 7 10 15 10 8 0 15 -4 15 -10z"/>
<path d="M629 509 c-8 -16 -8 -28 0 -45 12 -28 33 -31 52 -8 11 13 9 14 -14 9
-24 -6 -27 -4 -27 20 0 24 3 26 27 20 23 -5 25 -4 14 9 -18 22 -38 20 -52 -5z"/>
<path d="M710 485 c0 -25 5 -45 10 -45 6 0 10 20 10 45 0 25 -4 45 -10 45 -5
0 -10 -20 -10 -45z"/>
<path d="M809 514 c-11 -13 -9 -14 14 -9 34 9 35 -2 2 -15 -40 -15 -26 -44 23
-45 18 -1 22 4 22 30 0 49 -34 71 -61 39z m41 -44 c0 -5 -7 -10 -15 -10 -8 0
-15 5 -15 10 0 6 7 10 15 10 8 0 15 -4 15 -10z"/>
<path d="M999 509 c-8 -16 -8 -28 0 -45 12 -28 33 -31 52 -8 11 13 9 14 -14 9
-17 -5 -27 -3 -27 4 0 6 11 11 25 11 28 0 29 3 15 31 -14 25 -36 24 -51 -2z
m38 -5 c-3 -3 -12 -4 -19 -1 -8 3 -5 6 6 6 11 1 17 -2 13 -5z"/>
<path d="M1169 509 c-8 -16 -8 -28 0 -45 12 -28 33 -31 52 -8 11 13 9 14 -14
9 -17 -5 -27 -3 -27 4 0 6 11 11 25 11 28 0 29 3 15 31 -14 25 -36 24 -51 -2z
m38 -5 c-3 -3 -12 -4 -19 -1 -8 3 -5 6 6 6 11 1 17 -2 13 -5z"/>
<path d="M1390 496 c0 -39 14 -54 53 -54 25 0 27 3 27 44 0 24 -4 44 -10 44
-5 0 -10 -16 -10 -35 0 -28 -4 -35 -20 -35 -16 0 -20 7 -20 35 0 19 -4 35 -10
35 -5 0 -10 -15 -10 -34z"/>
<path d="M1530 484 c0 -24 5 -44 10 -44 6 0 10 16 10 35 0 24 5 35 15 35 10 0
15 -11 15 -35 0 -19 5 -35 10 -35 6 0 10 16 10 35 0 24 5 35 15 35 10 0 15
-11 15 -35 0 -19 5 -35 10 -35 15 0 12 67 -2 77 -7 4 -34 8 -60 9 l-48 1 0
-43z"/>
<path d="M1670 496 c0 -39 14 -54 53 -54 25 0 27 3 27 44 0 24 -4 44 -10 44
-5 0 -10 -16 -10 -35 0 -28 -4 -35 -20 -35 -16 0 -20 7 -20 35 0 19 -4 35 -10
35 -5 0 -10 -15 -10 -34z"/>
<path d="M1780 515 c-15 -18 -5 -35 21 -35 10 0 19 -5 19 -11 0 -7 -10 -9 -27
-4 -27 6 -27 6 -10 -12 13 -13 21 -15 34 -7 27 17 27 33 -1 44 -34 13 -33 24
1 15 23 -5 25 -4 14 9 -17 20 -35 20 -51 1z"/>
<path d="M1860 496 c0 -39 14 -54 53 -54 25 0 27 3 27 44 0 24 -4 44 -10 44
-5 0 -10 -16 -10 -35 0 -28 -4 -35 -20 -35 -16 0 -20 7 -20 35 0 19 -4 35 -10
35 -5 0 -10 -15 -10 -34z"/>
<path d="M2000 484 c0 -24 5 -44 10 -44 6 0 10 16 10 35 0 24 5 35 15 35 10 0
15 -11 15 -35 0 -19 5 -35 10 -35 6 0 10 16 10 35 0 24 5 35 15 35 10 0 15
-11 15 -35 0 -19 5 -35 10 -35 15 0 12 67 -2 77 -7 4 -34 8 -60 9 l-48 1 0
-43z"/>
<path d="M2149 514 c-11 -13 -9 -14 14 -9 34 9 35 -2 2 -15 -40 -15 -26 -44
23 -45 18 -1 22 4 22 30 0 49 -34 71 -61 39z m41 -44 c0 -5 -7 -10 -15 -10 -8
0 -15 5 -15 10 0 6 7 10 15 10 8 0 15 -4 15 -10z"/>
<path d="M2230 484 c0 -24 5 -44 10 -44 6 0 10 16 10 35 0 28 4 35 20 35 16 0
20 -7 20 -35 0 -19 5 -35 10 -35 14 0 12 67 -2 77 -7 4 -25 8 -40 9 -27 2 -28
-1 -28 -42z"/>
<path d="M520 310 c0 -33 4 -60 10 -60 6 0 10 11 10 25 0 20 5 25 25 25 14 0
25 5 25 10 0 6 -11 10 -25 10 -16 0 -25 6 -25 15 0 10 10 15 30 15 17 0 30 5
30 10 0 6 -18 10 -40 10 l-40 0 0 -60z"/>
<path d="M1050 360 c0 -5 5 -10 10 -10 6 0 10 5 10 10 0 6 -4 10 -10 10 -5 0
-10 -4 -10 -10z"/>
<path d="M1310 310 c0 -33 4 -60 10 -60 6 0 10 11 10 24 0 18 7 25 30 30 59
11 46 66 -16 66 l-34 0 0 -60z m70 25 c0 -9 -9 -15 -25 -15 -16 0 -25 6 -25
15 0 9 9 15 25 15 16 0 25 -6 25 -15z"/>
<path d="M1420 310 c0 -33 4 -60 10 -60 6 0 10 27 10 60 0 33 -4 60 -10 60 -6
0 -10 -27 -10 -60z"/>
<path d="M1860 360 c0 -5 5 -10 10 -10 6 0 10 5 10 10 0 6 -4 10 -10 10 -5 0
-10 -4 -10 -10z"/>
<path d="M1807 347 c-8 -20 7 -90 20 -94 9 -3 11 4 6 27 -4 21 -2 35 7 40 11
7 10 11 -3 24 -19 19 -23 20 -30 3z"/>
<path d="M620 294 c0 -24 5 -44 10 -44 6 0 10 14 10 31 0 18 7 37 17 44 15 11
14 13 -10 13 -25 0 -27 -3 -27 -44z"/>
<path d="M689 324 c-11 -13 -9 -14 14 -9 34 9 35 -2 2 -15 -40 -15 -26 -44 23
-45 18 -1 22 4 22 30 0 49 -34 71 -61 39z m41 -44 c0 -5 -7 -10 -15 -10 -8 0
-15 5 -15 10 0 6 7 10 15 10 8 0 15 -4 15 -10z"/>
<path d="M770 294 c0 -24 5 -44 10 -44 6 0 10 16 10 35 0 28 4 35 20 35 16 0
20 -7 20 -35 0 -19 5 -35 10 -35 14 0 12 67 -2 77 -7 4 -25 8 -40 9 -27 2 -28
-1 -28 -42z"/>
<path d="M879 316 c-8 -18 -7 -30 5 -54 12 -23 13 -32 3 -36 -6 -3 -4 -5 6 -3
10 1 18 7 18 12 0 6 8 18 17 28 16 18 15 18 -11 12 -24 -7 -27 -5 -27 20 0 24
3 26 27 20 23 -5 25 -4 14 9 -19 23 -40 20 -52 -8z"/>
<path d="M969 324 c-11 -13 -9 -14 14 -9 34 9 35 -2 2 -15 -40 -15 -26 -44 23
-45 18 -1 22 4 22 30 0 49 -34 71 -61 39z m41 -44 c0 -5 -7 -10 -15 -10 -8 0
-15 5 -15 10 0 6 7 10 15 10 8 0 15 -4 15 -10z"/>
<path d="M1050 295 c0 -25 5 -45 10 -45 6 0 10 20 10 45 0 25 -4 45 -10 45 -5
0 -10 -20 -10 -45z"/>
<path d="M1100 325 c-15 -18 -5 -35 21 -35 10 0 19 -5 19 -11 0 -7 -10 -9 -27
-4 -27 6 -27 6 -10 -12 13 -13 21 -15 34 -7 27 17 27 33 -1 44 -34 13 -33 24
1 15 23 -5 25 -4 14 9 -17 20 -35 20 -51 1z"/>
<path d="M1455 330 c-3 -5 1 -10 9 -10 12 0 16 -10 16 -35 0 -19 5 -35 10 -35
6 0 10 15 10 33 0 44 -29 73 -45 47z"/>
<path d="M1536 324 c-9 -8 -16 -22 -16 -29 0 -15 27 -45 40 -45 13 0 40 30 40
45 0 15 -27 45 -40 45 -5 0 -16 -7 -24 -16z m44 -29 c0 -18 -5 -25 -20 -25
-15 0 -20 7 -20 25 0 18 5 25 20 25 15 0 20 -7 20 -25z"/>
<path d="M1620 294 c0 -24 5 -44 10 -44 6 0 10 16 10 35 0 28 4 35 20 35 16 0
20 -7 20 -35 0 -19 5 -35 10 -35 14 0 12 67 -2 77 -7 4 -25 8 -40 9 -27 2 -28
-1 -28 -42z"/>
<path d="M1729 319 c-8 -16 -8 -28 0 -45 12 -28 33 -31 52 -8 11 13 9 14 -14
9 -17 -5 -27 -3 -27 4 0 6 11 11 25 11 28 0 29 3 15 31 -14 25 -36 24 -51 -2z
m38 -5 c-3 -3 -12 -4 -19 -1 -8 3 -5 6 6 6 11 1 17 -2 13 -5z"/>
<path d="M1860 295 c0 -25 5 -45 10 -45 6 0 10 20 10 45 0 25 -4 45 -10 45 -5
0 -10 -20 -10 -45z"/>
<path d="M1909 318 c-16 -30 4 -72 31 -65 15 4 20 0 20 -14 0 -10 5 -19 10
-19 6 0 10 26 10 58 0 59 0 59 -30 60 -21 0 -33 -6 -41 -20z m49 -20 c-5 -34
-38 -37 -38 -4 0 20 5 26 21 26 15 0 20 -5 17 -22z"/>
<path d="M2000 306 c0 -39 14 -54 53 -54 25 0 27 3 27 44 0 24 -4 44 -10 44
-5 0 -10 -16 -10 -35 0 -28 -4 -35 -20 -35 -16 0 -20 7 -20 35 0 19 -4 35 -10
35 -5 0 -10 -15 -10 -34z"/>
<path d="M2109 319 c-8 -16 -8 -28 0 -45 12 -28 33 -31 52 -8 11 13 9 14 -14
9 -17 -5 -27 -3 -27 4 0 6 11 11 25 11 28 0 29 3 15 31 -14 25 -36 24 -51 -2z
m38 -5 c-3 -3 -12 -4 -19 -1 -8 3 -5 6 6 6 11 1 17 -2 13 -5z"/>
<path d="M1220 290 c0 -5 9 -10 20 -10 11 0 20 5 20 10 0 6 -9 10 -20 10 -11
0 -20 -4 -20 -10z"/>
</g>
</svg>
