<?xml version="1.0" standalone="no"?>
<!DOCTYPE svg PUBLIC "-//W3C//DTD SVG 20010904//EN"
 "http://www.w3.org/TR/2001/REC-SVG-20010904/DTD/svg10.dtd">
<svg version="1.0" xmlns="http://www.w3.org/2000/svg"
 width="450.000000pt" height="450.000000pt" viewBox="0 0 450.000000 450.000000"
 preserveAspectRatio="xMidYMid meet">
<metadata>
Created by potrace 1.11, written by Peter Selinger 2001-2013
</metadata>
<g transform="translate(0.000000,450.000000) scale(0.100000,-0.100000)"
fill="#000000" stroke="none">
<path d="M0 2250 l0 -2250 2250 0 2250 0 0 2250 0 2250 -2250 0 -2250 0 0
-2250z m3370 1456 l0 -505 -27 10 c-20 6 -37 27 -60 72 -113 217 -390 414
-926 658 l-149 67 -96 -43 c-289 -128 -458 -218 -649 -346 -162 -109 -275
-224 -338 -346 -18 -36 -35 -55 -56 -62 l-29 -10 0 505 0 504 1165 0 1165 0 0
-504z m-2101 -705 c-8 -54 -6 -111 5 -130 12 -19 44 -12 65 15 l21 27 0 -29
c0 -25 2 -26 14 -14 8 8 29 52 46 98 17 45 35 82 40 82 4 0 24 -39 45 -87 21
-49 42 -94 47 -100 8 -10 1 -13 -29 -13 -35 0 -39 3 -39 23 1 18 -5 23 -33 25
-37 4 -57 -14 -39 -35 8 -10 -10 -13 -93 -13 l-104 0 0 100 0 100 31 0 31 0
-8 -49z m519 9 l2 -35 -15 28 c-33 59 -95 20 -95 -60 0 -45 25 -83 55 -83 8 0
24 9 35 20 11 11 20 16 20 10 0 -20 -41 -50 -69 -50 -17 0 -42 11 -60 26 -26
21 -31 33 -31 67 1 77 43 119 115 114 38 -2 40 -4 43 -37z m97 -60 l0 -100
-30 0 -30 0 0 100 0 100 30 0 30 0 0 -100z m203 65 l4 -30 -22 23 c-11 12 -28
22 -36 22 -13 0 -15 -14 -12 -90 l3 -90 -30 0 -30 0 3 90 c3 75 1 90 -12 90
-8 0 -22 -10 -30 -22 -16 -22 -16 -22 -16 10 l0 33 88 -3 87 -3 3 -30z m130
-65 l48 -100 -46 0 c-27 0 -40 4 -32 8 24 16 2 42 -34 42 -37 0 -58 -25 -33
-41 10 -6 4 -9 -19 -9 -31 0 -32 1 -18 23 8 12 27 53 41 92 28 73 33 85 41 85
2 0 26 -45 52 -100z m210 79 c47 -30 57 -115 17 -154 -20 -21 -34 -25 -87 -25
l-63 0 0 101 0 101 56 -5 c31 -3 65 -11 77 -18z m222 -11 c0 -32 0 -32 -16
-10 -10 14 -25 22 -45 22 -27 0 -29 -2 -29 -40 0 -37 2 -40 19 -30 11 5 22 15
24 22 3 7 5 -9 6 -37 0 -40 -2 -45 -9 -27 -13 31 -50 30 -50 -2 0 -13 3 -31 6
-40 9 -23 60 -20 84 4 l20 20 0 -25 c0 -25 -1 -25 -77 -25 l-78 0 0 100 0 100
73 0 72 0 0 -32z m105 -60 c0 -87 1 -93 21 -96 14 -2 29 7 43 24 l21 27 0 -32
0 -31 -72 0 -73 0 0 100 0 100 30 0 30 0 0 -92z m175 73 c-12 -24 -13 -141 -1
-160 13 -21 58 -5 75 27 l15 27 1 -37 0 -38 -72 0 -73 0 0 100 0 100 33 0 c29
0 32 -2 22 -19z m260 -13 c0 -32 0 -32 -16 -10 -10 14 -25 22 -45 22 -27 0
-29 -2 -29 -40 0 -37 2 -40 19 -30 11 5 22 15 24 22 3 7 5 -9 6 -37 0 -40 -2
-45 -9 -27 -5 12 -17 22 -25 22 -13 0 -15 -9 -13 -37 3 -33 7 -38 30 -41 20
-2 35 4 53 24 26 28 29 25 19 -13 -6 -21 -12 -23 -83 -23 l-76 0 0 100 0 100
73 0 72 0 0 -32z m-992 -308 c7 0 12 -13 12 -32 l0 -33 -23 29 c-25 31 -59 33
-65 3 -2 -11 8 -23 29 -35 48 -25 69 -49 69 -76 0 -35 -35 -56 -92 -56 l-48 0
1 38 c0 32 1 34 9 14 5 -12 21 -27 35 -34 21 -10 29 -9 42 5 15 15 15 18 -1
36 -10 10 -31 25 -47 31 -32 14 -48 53 -32 79 14 23 55 42 78 36 11 -2 26 -5
33 -5z m-927 -29 c22 -23 29 -39 29 -69 0 -22 -3 -48 -6 -57 -10 -26 -59 -45
-116 -45 l-53 0 0 100 0 100 58 0 c51 0 62 -4 88 -29z m121 -46 c-2 -49 1 -81
8 -91 15 -17 52 -18 68 -2 17 17 16 155 0 161 -7 3 3 5 22 5 19 0 29 -2 23 -5
-9 -3 -13 -28 -13 -76 0 -87 -21 -117 -81 -117 -60 0 -77 26 -81 121 l-3 79
30 0 30 0 -3 -75z m302 11 l22 -59 23 61 c22 59 25 62 58 62 30 0 33 -2 23
-19 -14 -27 -13 -154 2 -169 9 -9 2 -12 -32 -12 -34 0 -41 3 -32 12 7 7 12 40
11 83 l0 70 -31 -83 c-17 -46 -34 -79 -39 -75 -4 4 -21 42 -38 83 l-30 75 0
-72 c-1 -58 2 -74 17 -82 14 -9 12 -10 -13 -11 l-30 0 0 100 0 101 34 -3 c31
-3 35 -7 55 -62z m231 -18 c0 -80 1 -83 27 -92 45 -16 58 5 58 89 0 49 -4 75
-12 78 -7 3 3 6 22 6 26 1 31 -2 22 -11 -7 -7 -12 -40 -12 -80 0 -83 -18 -108
-78 -108 -59 0 -76 25 -82 121 l-5 79 30 0 30 0 0 -82z m385 63 c-15 -30 -12
-113 6 -139 18 -26 46 -28 68 -6 24 23 22 139 -1 153 -15 9 -13 10 12 11 l30
0 -6 -80 c-7 -96 -23 -120 -81 -120 -61 0 -78 25 -78 114 0 50 -4 76 -12 79
-7 3 6 6 30 6 39 1 42 -1 32 -18z m212 -71 l-3 -90 29 0 c21 0 37 8 51 28 l21
27 -2 -35 -3 -35 -75 -3 -75 -3 0 101 0 100 30 0 30 0 -3 -90z m210 29 l25
-61 22 61 c21 59 23 61 57 61 31 0 34 -2 24 -19 -14 -27 -13 -154 2 -169 9 -9
2 -12 -31 -12 -36 0 -42 2 -32 14 7 9 11 41 9 83 l-3 68 -28 -82 c-16 -46 -32
-83 -36 -83 -3 0 -20 35 -36 78 l-30 77 -3 -65 c-2 -52 0 -67 14 -77 16 -12
15 -13 -12 -13 l-29 0 0 100 0 100 31 0 c30 0 34 -4 56 -61z m304 -42 l43 -97
-47 0 c-30 0 -42 3 -34 9 8 5 12 17 10 27 -2 14 -12 19 -38 19 -32 0 -35 -3
-35 -27 1 -24 -3 -28 -29 -28 -27 0 -28 1 -13 18 9 9 30 55 47 100 18 46 37
81 43 79 6 -2 30 -47 53 -100z m169 47 l40 -56 3 43 c3 32 -1 47 -14 56 -16
11 -13 13 22 12 21 0 33 -3 27 -6 -9 -3 -13 -33 -13 -99 0 -52 -4 -94 -9 -94
-5 0 -35 34 -65 76 l-56 77 0 -66 c0 -52 4 -68 18 -76 14 -8 9 -10 -23 -11
-30 0 -36 3 -27 12 16 16 16 160 0 176 -9 9 -4 12 23 12 30 0 39 -7 74 -56z
m-1717 -725 c30 -4 119 -4 130 -1 6 2 12 9 12 16 0 6 9 17 19 23 18 11 20 9
23 -14 4 -33 27 -42 35 -15 3 12 16 28 29 37 24 15 24 15 24 -20 0 -19 5 -35
10 -35 6 0 10 10 10 23 0 13 7 32 15 43 13 16 16 17 25 4 5 -8 10 -25 10 -37
0 -21 5 -23 55 -23 39 0 57 4 61 14 7 19 74 50 84 39 5 -4 10 -19 12 -32 2
-18 10 -25 28 -26 47 -4 51 3 48 71 -3 74 11 99 39 71 14 -14 17 -32 14 -95
-4 -108 -14 -122 -96 -122 -54 0 -66 -3 -75 -20 l-11 -21 -28 21 c-27 19 -45
20 -321 20 -250 1 -295 -1 -309 -15 -10 -8 -24 -15 -33 -15 -16 0 -52 36 -61
60 -3 8 -6 -10 -6 -41 -1 -53 -21 -103 -34 -82 -3 5 -9 43 -13 85 -6 65 -4 79
12 102 16 22 27 25 75 26 48 0 59 -3 71 -22 11 -17 25 -23 49 -23 l34 0 3 65
c2 53 7 68 25 84 l22 18 3 -81 c2 -44 6 -81 10 -82z m747 -48 l-25 -26 0 90
c0 78 3 92 23 113 l22 24 3 -88 c3 -83 1 -89 -23 -113z m244 122 c-15 -18 -34
-1 -25 22 5 14 9 15 21 5 12 -10 13 -16 4 -27z m669 -17 c27 -13 65 -27 85
-31 l37 -7 -17 -29 c-15 -24 -24 -29 -58 -29 -23 0 -54 -9 -74 -21 -32 -19
-48 -20 -250 -19 -299 2 -291 3 -298 -17 -16 -46 -45 -63 -104 -63 -51 0 -60
3 -79 27 -25 32 -22 85 5 112 13 14 15 13 15 -8 0 -46 17 -61 70 -61 45 0 50
2 50 23 0 12 -4 28 -9 36 -6 10 -4 25 5 44 l15 29 25 -27 c15 -16 31 -25 40
-21 9 3 24 6 35 6 10 0 19 6 19 13 0 7 9 18 20 25 18 11 20 10 20 -18 0 -40
17 -39 97 5 81 44 113 45 148 4 22 -27 33 -32 75 -33 57 -1 64 9 19 28 l-31
13 27 22 c35 27 55 27 113 -3z m-1398 -583 c0 -13 -3 -14 -12 -5 -7 7 -20 12
-30 12 -13 0 -18 -8 -18 -30 0 -25 4 -30 25 -30 14 0 25 -5 25 -11 0 -5 -10
-9 -22 -7 -19 2 -24 -2 -26 -29 -6 -59 -20 -35 -24 38 -2 39 -1 73 1 75 2 2
22 4 43 4 29 0 38 -4 38 -17z m110 2 c15 -18 10 -47 -9 -53 -10 -3 -12 0 -7
13 7 20 -9 45 -30 45 -11 0 -14 -17 -14 -70 0 -40 -4 -70 -10 -70 -6 0 -10 26
-10 59 0 33 -3 66 -6 75 -5 13 1 16 34 16 22 0 45 -6 52 -15z m141 -63 c21
-55 24 -72 13 -72 -7 0 -16 11 -20 25 -5 20 -12 25 -39 25 -27 0 -34 -5 -39
-25 -10 -40 -52 -34 -70 10 -8 19 -20 35 -27 35 -7 0 -10 3 -6 6 13 13 46 -9
56 -36 5 -17 14 -30 19 -30 5 0 22 32 37 70 16 39 33 69 38 67 5 -1 22 -35 38
-75z m110 23 c23 -30 44 -55 47 -55 2 0 2 22 -1 50 -3 27 -2 52 4 55 5 4 9
-24 9 -69 0 -42 -4 -76 -9 -76 -5 0 -27 24 -48 52 l-38 53 -3 -53 c-5 -80 -22
-62 -22 23 0 42 4 75 10 75 5 0 28 -25 51 -55z m209 38 c0 -13 -3 -14 -12 -5
-35 35 -97 -11 -84 -62 10 -39 35 -58 72 -54 18 2 30 0 28 -4 -3 -4 -17 -8
-31 -8 -21 0 -23 -2 -13 -15 6 -8 9 -19 5 -25 -9 -15 -25 -12 -19 4 3 8 -2 20
-11 27 -48 40 -55 51 -55 83 0 25 7 40 26 55 34 26 94 29 94 4z m117 -40 c12
-32 25 -66 29 -75 10 -28 -15 -21 -28 7 -16 36 -65 35 -79 -1 -5 -15 -11 -25
-14 -22 -7 7 50 148 60 148 6 0 20 -26 32 -57z m83 -18 c0 -98 -17 -97 -22 0
-2 55 0 75 10 75 8 0 12 -22 12 -75z m118 55 c5 -13 3 -13 -11 -2 -19 16 -57
7 -57 -14 0 -7 17 -22 37 -31 64 -31 53 -83 -18 -83 -30 0 -39 4 -39 17 0 13
3 14 12 5 17 -17 55 -15 62 3 4 10 -8 23 -34 40 -43 27 -52 57 -22 74 23 15
64 9 70 -9z m140 -57 c-10 -2 -26 -2 -35 0 -10 3 -2 5 17 5 19 0 27 -2 18 -5z
m-1683 -39 c9 -4 29 -33 45 -65 32 -63 103 -157 153 -203 158 -143 428 -302
798 -470 l127 -58 158 72 c497 224 785 426 906 635 23 38 48 76 57 83 41 34
41 36 41 -488 l0 -500 -1165 0 -1165 0 0 500 c0 531 -2 512 45 494z m539 -156
c14 -22 -2 -52 -30 -56 -14 -2 -16 -1 -6 6 22 15 11 56 -15 60 -22 3 -23 0
-23 -67 0 -95 -18 -91 -22 4 l-3 76 44 -3 c29 -2 48 -9 55 -20z m47 5 c1 -10
1 -24 0 -30 -1 -9 12 -13 39 -13 38 0 40 2 40 30 0 17 5 30 10 30 6 0 10 -32
10 -75 0 -77 -16 -105 -22 -37 -3 35 -5 37 -38 37 -30 0 -35 -3 -37 -25 0 -14
-1 -31 -2 -37 -1 -7 -5 -13 -10 -13 -5 0 -11 34 -13 75 -2 55 0 75 10 75 6 0
13 -8 13 -17z m263 -5 c25 -35 20 -83 -10 -107 -37 -29 -78 -27 -103 5 -12 15
-21 37 -21 49 0 12 9 34 21 49 27 35 90 37 113 4z m103 -30 l38 -53 3 53 c2
28 7 52 13 52 10 0 10 -78 0 -124 l-6 -29 -45 59 -45 59 -5 -60 -6 -60 -4 78
c-6 94 3 98 57 25z m182 35 c0 -11 -3 -13 -6 -5 -2 6 -16 12 -29 12 -20 0 -24
-5 -24 -30 0 -26 4 -30 28 -31 l27 -2 -27 -4 c-23 -4 -28 -9 -28 -34 0 -34 28
-40 55 -12 16 16 17 15 13 -3 -2 -14 -13 -20 -42 -22 -49 -4 -56 6 -55 86 l1
62 44 0 c36 0 44 -3 43 -17z m151 1 c0 -13 -3 -14 -15 -4 -30 25 -45 4 -45
-65 0 -37 -4 -65 -10 -65 -6 0 -10 30 -10 70 0 62 -2 70 -19 70 -11 0 -22 -6
-24 -12 -3 -8 -6 -6 -6 5 -1 14 8 17 64 17 53 0 65 -3 65 -16z m40 -59 c0 -98
-17 -97 -22 0 -2 55 0 75 10 75 8 0 12 -22 12 -75z m162 58 c33 -39 28 -90
-10 -119 -9 -8 -12 -14 -6 -14 6 0 16 -11 22 -25 9 -20 9 -25 -2 -25 -7 0 -18
11 -24 25 -8 17 -20 25 -37 25 -60 0 -92 100 -43 134 30 21 81 20 100 -1z m78
-49 l0 -65 33 3 c32 3 32 3 35 66 4 86 22 78 22 -10 l0 -73 -50 -2 c-30 -1
-52 3 -57 10 -4 7 -10 40 -13 75 -5 55 -3 62 12 62 15 0 18 -9 18 -66z m218
46 c4 -12 2 -13 -9 -2 -7 6 -23 12 -36 12 -19 0 -23 -5 -23 -30 0 -26 4 -30
28 -31 l27 -2 -27 -4 c-22 -3 -28 -10 -28 -29 0 -29 25 -42 51 -25 15 9 19 8
19 -4 0 -11 -12 -15 -45 -15 l-45 0 0 59 c0 33 -3 67 -6 76 -6 14 0 16 41 13
32 -2 50 -8 53 -18z"/>
<path d="M1090 4113 l1 -58 15 35 c10 22 11 36 4 38 -23 8 -8 18 28 18 20 0
68 3 105 6 64 5 69 4 77 -17 5 -13 13 -26 18 -29 12 -7 36 20 28 33 -3 5 1 11
9 15 14 5 20 -6 16 -28 -1 -5 0 -15 3 -23 7 -18 46 1 46 22 0 8 9 19 20 25 16
9 25 5 53 -23 19 -18 46 -38 62 -45 24 -11 27 -11 21 3 -3 9 -6 19 -6 21 0 2
-6 4 -14 4 -8 0 -24 9 -37 20 l-24 19 78 1 c43 0 87 -4 97 -10 13 -7 26 -5 47
5 15 8 34 15 41 15 11 0 86 -25 135 -45 11 -5 17 -3 17 7 0 18 74 37 123 31
32 -5 38 -9 35 -27 -1 -11 1 -27 5 -33 12 -19 30 -16 23 3 -8 21 31 53 64 53
l25 0 -27 -20 c-26 -19 -56 -84 -44 -96 3 -4 21 0 39 9 19 9 39 13 48 8 8 -4
25 -11 38 -15 23 -7 24 -6 18 26 -4 21 -20 45 -39 62 l-32 27 26 0 c33 0 85
-39 67 -51 -17 -10 -4 -23 16 -16 9 4 15 18 15 35 0 26 4 30 34 35 41 7 122
-16 118 -33 -3 -14 1 -13 95 22 60 22 63 22 98 5 27 -13 41 -15 56 -7 10 6 54
9 97 8 l77 -3 -42 -20 c-47 -22 -70 -61 -26 -44 13 5 40 25 60 44 40 39 52 40
70 5 24 -48 69 -43 56 7 -4 19 -2 24 8 21 8 -3 14 -11 14 -19 1 -27 16 -41 31
-28 8 6 14 18 14 25 0 16 6 17 85 14 33 -2 77 -3 98 -4 31 0 36 -3 31 -18 -6
-21 4 -60 14 -54 4 2 6 25 4 50 l-4 46 -1114 0 -1114 0 0 -57z"/>
<path d="M1287 4133 c-4 -3 -7 -11 -7 -17 0 -6 5 -5 12 2 6 6 9 14 7 17 -3 3
-9 2 -12 -2z"/>
<path d="M1983 4125 c-18 -8 -33 -19 -33 -25 0 -9 18 -8 71 6 9 3 19 -3 23
-11 3 -9 11 -13 16 -10 7 4 1 16 -15 31 -14 13 -27 24 -28 24 -1 -1 -17 -7
-34 -15z"/>
<path d="M2382 4123 c2 -11 13 -18 29 -19 14 -1 31 -4 38 -8 6 -4 11 -3 11 3
0 11 -51 41 -70 41 -6 0 -10 -8 -8 -17z"/>
<path d="M3112 4128 c2 -6 10 -14 16 -16 7 -2 10 2 6 12 -7 18 -28 22 -22 4z"/>
<path d="M1160 4104 c-5 -12 -18 -24 -29 -27 -41 -10 -19 -121 28 -147 14 -7
22 -7 27 1 12 20 68 38 82 27 19 -16 36 5 28 36 -8 33 -23 33 -58 -1 -23 -22
-31 -25 -37 -14 -5 7 -13 11 -19 7 -11 -6 -62 13 -62 23 0 3 14 15 30 26 16
11 30 25 30 32 0 24 22 24 53 1 46 -35 66 -41 60 -19 -3 11 2 21 11 24 27 10
18 28 -10 21 -20 -5 -26 -2 -31 14 -4 17 -12 20 -50 19 -36 -2 -47 -6 -53 -23z"/>
<path d="M1649 4110 c-9 -9 -19 -31 -22 -48 -6 -28 -4 -32 14 -32 16 0 20 5
16 19 -3 12 3 27 14 37 10 9 19 20 19 24 0 16 -26 16 -41 0z"/>
<path d="M1790 4126 c0 -2 7 -6 15 -10 8 -3 15 -1 15 4 0 6 -7 10 -15 10 -8 0
-15 -2 -15 -4z"/>
<path d="M2595 4120 c-3 -6 1 -7 9 -4 18 7 21 14 7 14 -6 0 -13 -4 -16 -10z"/>
<path d="M2733 4114 c-4 -10 1 -22 11 -30 12 -8 16 -19 11 -33 -5 -17 -2 -21
14 -21 23 0 36 16 21 25 -5 3 -10 13 -10 21 0 8 -9 23 -20 34 -18 18 -21 19
-27 4z"/>
<path d="M3156 4116 c6 -15 -29 -31 -45 -21 -5 3 -12 1 -16 -4 -3 -6 4 -15 15
-21 17 -9 19 -14 9 -26 -20 -24 5 -16 49 17 l42 30 40 -42 c42 -45 41 -62 -3
-64 -13 -1 -29 -5 -36 -9 -7 -5 -22 3 -38 20 -20 21 -29 25 -42 17 -19 -12
-24 -33 -12 -52 8 -12 12 -12 24 -3 17 14 62 -1 84 -28 11 -13 17 -11 43 18
25 27 30 41 30 82 0 44 -3 50 -20 50 -12 0 -24 9 -29 23 -7 18 -17 23 -55 25
-35 1 -44 -2 -40 -12z"/>
<path d="M1727 4113 c-4 -3 -7 -23 -7 -44 0 -29 -5 -39 -20 -44 -21 -7 -24
-14 -14 -39 14 -37 58 1 57 49 l-1 32 57 -2 c92 -3 90 -2 96 -39 5 -22 14 -36
26 -39 25 -7 25 -27 0 -27 -10 0 -26 -11 -35 -25 -9 -14 -14 -25 -12 -25 17 0
126 55 124 62 -3 8 -27 23 -78 48 -9 5 -14 19 -13 38 2 23 -3 34 -23 47 -24
16 -26 16 -39 -2 -13 -17 -15 -17 -49 0 -39 18 -59 21 -69 10z"/>
<path d="M2527 4104 c-21 -11 -26 -20 -22 -35 8 -25 -3 -59 -20 -59 -15 0 -75
-32 -75 -40 0 -6 122 -61 127 -57 8 9 -31 47 -48 47 -24 0 -25 20 -1 27 12 3
22 19 28 41 l9 37 73 1 c70 1 73 0 70 -21 -4 -31 22 -76 41 -73 25 5 27 48 2
55 -17 4 -21 13 -21 49 0 38 -3 44 -21 44 -11 0 -34 -8 -50 -17 -26 -15 -30
-16 -46 -1 -16 15 -21 15 -46 2z"/>
<path d="M2357 4103 c-4 -3 -7 -11 -7 -17 0 -6 5 -5 12 2 6 6 9 14 7 17 -3 3
-9 2 -12 -2z"/>
<path d="M1357 4084 c-9 -9 4 -35 14 -28 5 3 9 12 9 20 0 14 -12 19 -23 8z"/>
<path d="M1425 4077 c-4 -9 -2 -23 3 -30 8 -10 5 -20 -14 -40 -14 -15 -31 -27
-39 -27 -10 0 -15 -10 -15 -30 0 -16 5 -30 10 -30 6 0 10 -11 10 -24 0 -27 21
-48 53 -51 36 -4 37 -4 37 -19 0 -9 15 -13 55 -13 49 0 55 2 50 18 -8 25 28
44 54 27 15 -9 23 -9 35 2 15 12 15 15 1 30 -18 19 -20 51 -4 67 16 16 1 53
-21 53 -16 0 -17 -5 -10 -37 11 -45 8 -49 -30 -56 -16 -4 -38 -16 -47 -27 -11
-12 -30 -20 -50 -20 -28 0 -33 4 -33 23 0 25 -44 57 -57 42 -5 -4 -2 -10 5
-12 19 -7 15 -35 -5 -31 -11 2 -19 14 -21 30 -4 34 35 62 76 56 16 -2 34 2 41
9 16 17 31 16 31 -2 0 -16 30 -55 42 -55 5 0 13 11 19 24 8 18 7 30 -5 54 -31
60 -66 80 -66 38 0 -14 -4 -28 -10 -31 -6 -3 -10 5 -10 19 0 27 -15 43 -25 26
-11 -17 -31 -11 -42 13 -10 20 -12 20 -18 4z"/>
<path d="M2970 4074 c0 -20 -27 -29 -45 -14 -13 11 -15 8 -15 -15 0 -32 -23
-30 -28 3 -4 28 -13 28 -40 0 -39 -42 -44 -83 -15 -117 6 -8 53 42 53 56 0 15
16 17 25 3 3 -5 24 -10 45 -10 32 0 44 -6 62 -30 12 -16 25 -30 30 -30 4 0 8
14 8 30 0 19 -5 30 -14 30 -23 0 -61 59 -47 73 15 15 14 24 -4 31 -9 3 -15 0
-15 -10z"/>
<path d="M3032 4076 c1 -10 8 -17 13 -17 15 1 12 24 -3 29 -9 3 -13 -2 -10
-12z"/>
<path d="M1976 4047 c1 -27 5 -33 28 -35 29 -4 96 23 96 38 0 15 -22 23 -29
11 -4 -6 -24 -14 -44 -18 -30 -4 -37 -2 -37 10 0 9 -3 18 -7 20 -5 3 -8 -9 -7
-26z"/>
<path d="M2431 4064 c0 -11 3 -14 6 -6 3 7 2 16 -1 19 -3 4 -6 -2 -5 -13z"/>
<path d="M2716 4067 c3 -10 9 -15 12 -12 3 3 0 11 -7 18 -10 9 -11 8 -5 -6z"/>
<path d="M2321 4061 c-18 -11 -5 -31 20 -31 10 0 19 -4 19 -10 0 -5 18 -10 41
-10 52 0 48 21 -6 32 -21 5 -43 13 -50 18 -6 5 -17 5 -24 1z"/>
<path d="M1208 4053 c7 -3 16 -2 19 1 4 3 -2 6 -13 5 -11 0 -14 -3 -6 -6z"/>
<path d="M1330 4051 c0 -6 4 -13 10 -16 6 -3 7 1 4 9 -7 18 -14 21 -14 7z"/>
<path d="M1840 4009 c0 -26 -3 -31 -20 -26 -11 3 -23 1 -26 -4 -3 -5 -19 -9
-37 -9 -24 0 -28 -3 -19 -12 7 -7 12 -21 12 -33 1 -19 1 -19 14 -2 16 21 32
22 44 1 6 -11 16 -14 31 -9 18 5 20 10 10 21 -14 17 -5 44 16 44 18 0 20 31 3
48 -20 20 -28 14 -28 -19z"/>
<path d="M2540 4021 c-15 -29 -13 -38 11 -44 17 -5 20 -11 15 -32 -8 -31 21
-48 36 -22 11 21 34 22 45 2 7 -12 11 -8 20 15 11 28 10 30 -12 30 -13 0 -26
4 -29 9 -3 4 -18 6 -32 3 -22 -4 -26 -2 -21 12 7 18 -1 46 -14 46 -4 0 -13 -9
-19 -19z"/>
<path d="M1167 4023 c-12 -12 -7 -22 8 -17 8 4 15 10 15 15 0 11 -14 12 -23 2z"/>
<path d="M1805 4021 c-3 -5 -1 -12 5 -16 5 -3 10 1 10 9 0 18 -6 21 -15 7z"/>
<path d="M2297 4019 c7 -7 15 -10 18 -7 3 3 -2 9 -12 12 -14 6 -15 5 -6 -5z"/>
<path d="M2595 4020 c3 -5 8 -10 11 -10 2 0 4 5 4 10 0 6 -5 10 -11 10 -5 0
-7 -4 -4 -10z"/>
<path d="M3220 4021 c0 -11 26 -22 34 -14 3 3 3 10 0 14 -7 12 -34 11 -34 0z"/>
<path d="M1210 4010 c0 -5 5 -10 10 -10 6 0 10 5 10 10 0 6 -4 10 -10 10 -5 0
-10 -4 -10 -10z"/>
<path d="M1766 4003 c-6 -14 -5 -15 5 -6 7 7 10 15 7 18 -3 3 -9 -2 -12 -12z"/>
<path d="M2630 4011 c0 -5 5 -13 10 -16 6 -3 10 -2 10 4 0 5 -4 13 -10 16 -5
3 -10 2 -10 -4z"/>
<path d="M3185 4010 c3 -5 11 -10 16 -10 6 0 7 5 4 10 -3 6 -11 10 -16 10 -6
0 -7 -4 -4 -10z"/>
<path d="M2750 3990 c0 -10 5 -30 11 -43 9 -19 8 -30 -5 -49 -14 -22 -15 -27
-2 -37 11 -9 20 -10 36 -1 25 13 50 -2 50 -30 0 -26 88 -25 113 1 9 10 23 16
30 13 20 -7 58 38 47 56 -7 10 -10 11 -10 3 0 -7 -9 -13 -20 -13 -11 0 -20 7
-20 15 0 8 8 15 17 15 12 0 14 3 6 11 -17 17 -49 -6 -56 -40 -6 -28 -8 -29
-43 -21 -20 5 -41 14 -45 22 -4 7 -23 18 -41 24 -31 10 -33 13 -30 52 3 37 1
42 -17 42 -14 0 -21 -6 -21 -20z"/>
<path d="M1091 3893 c-1 -62 1 -113 2 -113 2 0 14 8 25 19 27 23 28 47 2 54
-17 4 -19 12 -16 59 2 29 0 62 -5 73 -4 12 -8 -26 -8 -92z"/>
<path d="M1315 3959 c-5 -21 -3 -34 6 -39 10 -7 10 -11 0 -24 -11 -13 -9 -17
13 -26 14 -5 26 -16 26 -24 0 -16 18 -31 27 -23 2 3 -5 19 -17 35 -12 17 -25
51 -27 76 -7 56 -19 67 -28 25z"/>
<path d="M2370 3986 c0 -2 7 -7 16 -10 8 -3 12 -2 9 4 -6 10 -25 14 -25 6z"/>
<path d="M3307 3968 c-3 -12 -2 -28 2 -37 15 -28 1 -81 -20 -81 -26 0 -24 -22
5 -49 20 -19 23 -29 19 -64 -3 -23 -16 -61 -28 -84 -18 -32 -20 -43 -10 -43
41 0 60 -93 25 -125 -24 -21 -27 -50 -5 -41 11 4 15 -2 15 -25 0 -38 -19 -35
-40 8 -8 17 -27 35 -41 40 -24 9 -22 5 20 -51 25 -34 54 -72 63 -86 16 -24 17
-8 17 312 1 302 -5 391 -22 326z"/>
<path d="M3070 3939 c0 -40 -26 -99 -43 -99 -4 0 -5 -5 -2 -10 9 -14 35 7 35
26 0 8 6 14 14 14 21 0 31 21 15 31 -12 7 -11 10 3 21 12 10 14 19 7 36 -14
35 -29 26 -29 -19z"/>
<path d="M1464 3945 c21 -16 32 -13 21 4 -3 6 -14 11 -23 11 -15 -1 -15 -2 2
-15z"/>
<path d="M1520 3951 c0 -5 5 -13 10 -16 6 -3 10 -2 10 4 0 5 -4 13 -10 16 -5
3 -10 2 -10 -4z"/>
<path d="M2887 3953 c-4 -3 -7 -11 -7 -17 0 -6 5 -5 12 2 6 6 9 14 7 17 -3 3
-9 2 -12 -2z"/>
<path d="M2925 3950 c-3 -5 1 -10 9 -10 8 0 18 5 21 10 3 6 -1 10 -9 10 -8 0
-18 -4 -21 -10z"/>
<path d="M1120 3929 c0 -8 9 -25 20 -39 11 -14 20 -33 20 -42 0 -14 9 -18 43
-18 l42 1 -32 14 c-18 8 -33 20 -33 28 0 7 -13 26 -30 42 -19 18 -30 24 -30
14z"/>
<path d="M1230 3920 c0 -13 11 -13 30 0 12 8 11 10 -7 10 -13 0 -23 -4 -23
-10z"/>
<path d="M3155 3920 c3 -5 13 -10 21 -10 8 0 12 5 9 10 -3 6 -13 10 -21 10 -8
0 -12 -4 -9 -10z"/>
<path d="M3256 3905 c-14 -13 -26 -29 -26 -35 0 -6 -15 -17 -32 -25 -30 -12
-35 -12 -56 8 l-22 21 -30 -29 c-31 -30 -32 -46 -1 -38 27 7 36 -15 16 -37
-13 -14 -16 -29 -12 -54 6 -35 -11 -54 -29 -36 -5 5 -15 5 -23 0 -12 -7 -13
-11 -1 -25 25 -30 50 -38 77 -24 21 11 29 11 55 -4 23 -13 34 -15 51 -6 37 19
56 40 50 55 -3 8 0 14 6 14 6 0 11 11 11 25 0 15 -6 25 -15 25 -8 0 -17 14
-21 36 -6 34 -8 35 -48 32 -29 -2 -42 -8 -44 -20 -2 -12 5 -17 30 -20 28 -3
33 -7 31 -26 -2 -13 2 -32 8 -43 5 -11 7 -28 4 -39 -6 -19 -7 -19 -37 0 -22
13 -37 16 -49 10 -14 -8 -18 -4 -24 27 -4 21 -2 40 4 46 6 6 11 21 11 33 0 34
27 54 70 54 32 0 40 4 49 28 6 15 18 37 27 50 22 29 4 28 -30 -3z"/>
<path d="M1278 3903 c7 -3 16 -2 19 1 4 3 -2 6 -13 5 -11 0 -14 -3 -6 -6z"/>
<path d="M1710 3889 c0 -5 5 -7 10 -4 6 3 10 8 10 11 0 2 -4 4 -10 4 -5 0 -10
-5 -10 -11z"/>
<path d="M2690 3889 c0 -5 5 -7 10 -4 6 3 10 8 10 11 0 2 -4 4 -10 4 -5 0 -10
-5 -10 -11z"/>
<path d="M1225 3880 c3 -5 15 -10 26 -10 11 0 17 5 14 10 -3 6 -15 10 -26 10
-11 0 -17 -4 -14 -10z"/>
<path d="M1743 3870 c-4 -16 -11 -18 -31 -13 -17 4 -23 2 -18 -5 8 -13 -69
-50 -129 -62 -22 -4 -30 -8 -17 -9 40 -2 24 -18 -63 -66 -47 -25 -83 -50 -80
-54 5 -9 -64 -61 -81 -61 -5 0 -15 -9 -22 -20 -7 -11 -20 -20 -31 -20 -10 0
-28 9 -41 20 -30 26 -70 25 -99 -1 -28 -26 -24 -56 12 -83 25 -19 28 -19 44
-4 15 16 15 17 -5 11 -12 -3 -22 -1 -22 5 0 5 -9 12 -20 15 -23 6 -27 27 -5
27 9 0 18 7 21 15 8 21 20 19 44 -7 30 -33 23 -69 -17 -88 -18 -8 -33 -22 -33
-31 0 -15 -30 -49 -43 -49 -4 0 -7 13 -7 30 0 22 4 28 15 24 22 -9 19 22 -5
46 l-20 20 -1 -67 c0 -38 -1 -83 -2 -101 -1 -17 -1 -32 1 -32 1 0 19 26 39 58
95 150 334 329 668 501 l40 20 -43 1 c-36 0 -45 -4 -49 -20z"/>
<path d="M2590 3886 c0 -3 42 -27 94 -54 190 -100 375 -221 465 -304 22 -21
42 -38 44 -38 2 0 2 10 0 23 -3 15 4 30 21 46 23 22 26 22 41 7 18 -17 45 -22
45 -7 0 16 -43 41 -71 41 -14 0 -34 -9 -44 -20 -10 -11 -28 -20 -41 -20 -13 0
-28 9 -34 20 -6 11 -15 20 -20 20 -21 0 -80 46 -80 63 0 9 -6 17 -12 17 -7 1
-46 20 -86 44 -69 40 -71 43 -50 54 22 10 22 11 -7 11 -17 1 -48 10 -70 21
-22 11 -45 20 -52 20 -7 0 -13 7 -13 15 0 11 -7 14 -25 9 -21 -5 -25 -3 -25
15 0 18 -6 21 -40 21 -22 0 -40 -2 -40 -4z"/>
<path d="M3145 3880 c-3 -5 3 -10 14 -10 11 0 23 5 26 10 3 6 -3 10 -14 10
-11 0 -23 -4 -26 -10z"/>
<path d="M1268 3849 c-15 -19 -15 -24 -2 -44 16 -24 27 -132 15 -139 -4 -3
-13 -1 -21 4 -14 9 -60 -7 -60 -22 0 -4 -4 -8 -10 -8 -12 0 -13 67 -1 74 4 3
6 18 3 32 -4 21 -1 26 9 22 8 -3 25 -1 38 3 35 14 9 39 -40 39 -38 0 -39 -1
-39 -35 0 -28 -4 -35 -20 -35 -23 0 -28 -34 -7 -47 6 -4 12 -17 12 -28 0 -13
12 -26 34 -37 30 -15 37 -15 55 -2 26 18 51 18 70 -1 13 -14 19 -12 51 16 26
23 33 34 24 40 -7 4 -20 4 -29 -1 -24 -13 -47 4 -31 23 13 16 5 67 -10 67 -5
0 -9 9 -9 20 0 15 7 20 27 20 l27 0 -29 30 c-34 36 -35 36 -57 9z"/>
<path d="M1395 3788 c3 -13 10 -36 15 -53 4 -16 9 -23 10 -15 6 54 6 66 -6 77
-19 20 -27 16 -19 -9z"/>
<path d="M2995 3793 c-8 -18 -9 -35 -5 -70 1 -16 2 -15 9 2 16 38 23 85 13 85
-5 0 -13 -8 -17 -17z"/>
<path d="M1360 3790 c-8 -36 -7 -67 2 -77 28 -34 39 12 13 57 -8 14 -15 23
-15 20z"/>
<path d="M1455 3780 c3 -5 12 -10 20 -10 8 0 17 5 20 10 4 6 -5 10 -20 10 -15
0 -24 -4 -20 -10z"/>
<path d="M2928 3778 c17 -8 26 -8 34 0 9 9 4 12 -22 11 -33 0 -34 -1 -12 -11z"/>
<path d="M3031 3749 c-7 -23 -10 -43 -7 -47 10 -9 46 30 39 42 -4 6 -6 19 -5
29 6 34 -15 16 -27 -24z"/>
<path d="M1091 3659 c0 -72 3 -97 9 -81 5 12 13 22 17 22 4 0 14 4 22 9 11 7
9 14 -9 39 -13 17 -24 47 -25 67 -1 20 -5 39 -9 42 -3 3 -6 -41 -5 -98z"/>
<path d="M1225 3740 c4 -6 11 -8 16 -5 14 9 11 15 -7 15 -8 0 -12 -5 -9 -10z"/>
<path d="M3165 3740 c4 -6 11 -8 16 -5 14 9 11 15 -7 15 -8 0 -12 -5 -9 -10z"/>
<path d="M1261 3714 c0 -11 3 -14 6 -6 3 7 2 16 -1 19 -3 4 -6 -2 -5 -13z"/>
<path d="M3140 3721 c0 -5 5 -13 10 -16 6 -3 10 -2 10 4 0 5 -4 13 -10 16 -5
3 -10 2 -10 -4z"/>
<path d="M1207 3703 c-12 -12 -7 -22 8 -17 8 4 15 10 15 15 0 11 -14 12 -23 2z"/>
<path d="M3180 3701 c0 -5 7 -12 16 -15 24 -9 28 -7 14 9 -14 17 -30 20 -30 6z"/>
<path d="M3267 3518 c-22 -16 -30 -18 -42 -8 -9 7 -15 8 -15 2 0 -5 6 -15 14
-21 17 -14 64 1 72 24 10 24 1 25 -29 3z"/>
<path d="M1432 2951 c-10 -29 -10 -31 14 -31 27 0 29 5 10 39 l-13 24 -11 -32z"/>
<path d="M2141 2956 c-13 -33 -10 -39 17 -34 17 3 17 6 6 33 l-12 30 -11 -29z"/>
<path d="M2349 2998 c-4 -114 -2 -133 15 -136 32 -7 56 27 56 77 0 52 -21 91
-51 91 -15 0 -19 -7 -20 -32z"/>
<path d="M1180 2616 c0 -48 5 -88 10 -91 6 -4 22 1 35 9 22 14 25 24 25 71 0
42 -5 60 -20 75 -40 40 -50 27 -50 -64z"/>
<path d="M2952 2612 c-10 -30 -10 -32 14 -32 27 0 31 17 11 45 -13 17 -15 16
-25 -13z"/>
<path d="M1293 1904 c-3 -8 -1 -20 6 -27 8 -8 11 -4 11 16 0 30 -7 35 -17 11z"/>
<path d="M1980 1906 c0 -8 5 -18 10 -21 6 -3 10 3 10 14 0 12 -4 21 -10 21 -5
0 -10 -6 -10 -14z"/>
<path d="M2835 1941 c-3 -5 -2 -12 3 -15 13 -8 46 0 50 12 4 14 -44 16 -53 3z"/>
<path d="M1946 1375 c-10 -28 -7 -45 9 -45 16 0 20 27 6 48 -7 11 -10 10 -15
-3z"/>
<path d="M2386 1364 c-10 -26 -7 -34 14 -34 11 0 20 4 20 9 0 17 -12 41 -20
41 -4 0 -11 -7 -14 -16z"/>
<path d="M3298 1152 c-20 -31 -64 -87 -98 -124 -34 -38 -55 -68 -47 -68 8 0
26 -9 40 -20 32 -26 79 -26 102 0 25 27 12 37 -21 16 -25 -17 -27 -17 -50 5
-13 12 -24 30 -24 39 0 21 31 50 53 50 9 0 17 6 17 14 0 18 40 67 49 62 12 -8
6 -51 -6 -51 -23 0 -26 -16 -6 -38 11 -12 23 -29 26 -37 3 -8 6 36 6 98 1 61
0 112 -1 112 -2 0 -19 -26 -40 -58z"/>
<path d="M1100 1098 l0 -102 25 34 c25 34 25 53 0 43 -11 -4 -15 3 -15 26 0
17 4 31 8 31 14 0 40 -33 44 -55 2 -12 13 -21 26 -23 20 -3 52 -36 52 -53 0
-4 -12 -22 -26 -39 l-27 -31 -19 21 c-10 11 -23 20 -28 20 -19 0 -9 15 21 33
26 14 34 15 48 5 14 -12 14 -11 2 5 -27 34 -91 6 -91 -40 0 -24 39 -53 71 -53
17 0 42 9 56 20 14 11 32 20 39 20 8 0 19 -9 26 -20 7 -11 18 -20 24 -20 15 0
86 -56 83 -67 -1 -7 50 -39 129 -80 37 -20 41 -33 10 -34 -13 0 0 -6 27 -13
28 -7 59 -17 70 -23 11 -7 28 -14 38 -17 11 -3 15 -11 11 -17 -5 -8 1 -10 18
-6 20 5 27 3 31 -13 4 -16 14 -20 49 -20 l43 0 -110 59 c-308 163 -508 318
-597 462 -16 27 -32 49 -34 49 -2 0 -4 -46 -4 -102z"/>
<path d="M3226 1014 c-6 -14 -4 -15 10 -4 9 8 18 10 22 4 4 -5 17 -15 30 -22
18 -10 22 -10 22 3 0 31 -73 48 -84 19z"/>
<path d="M3330 955 c0 -9 -12 -27 -27 -41 -25 -23 -26 -25 -8 -44 10 -11 22
-46 26 -77 7 -52 6 -58 -17 -75 -28 -22 -33 -56 -7 -54 19 1 36 -49 26 -79 -4
-11 -5 -24 -4 -30 2 -5 7 -23 11 -40 5 -17 8 79 9 213 1 133 -1 242 -4 242 -3
0 -5 -7 -5 -15z"/>
<path d="M1102 730 c0 -129 3 -224 5 -210 3 14 9 30 14 36 5 6 4 15 -2 21 -18
18 -1 94 19 91 23 -4 17 31 -9 53 -25 22 -20 93 10 144 18 31 19 37 6 42 -9 3
-22 17 -30 32 -13 23 -14 0 -13 -209z"/>
<path d="M3095 934 c-75 -61 -247 -169 -400 -250 l-100 -54 42 0 c33 0 43 4
48 20 5 16 10 18 26 10 15 -8 19 -7 19 5 0 17 51 41 125 60 28 8 40 14 27 14
-39 2 -21 21 58 62 41 22 77 45 79 51 6 18 54 57 78 64 18 5 39 31 31 40 -2 1
-16 -9 -33 -22z"/>
<path d="M1176 879 c-16 -12 -25 -27 -22 -36 3 -7 -1 -16 -9 -19 -23 -9 -19
-44 5 -44 16 0 20 -7 20 -34 0 -30 4 -35 29 -41 30 -6 71 8 71 24 0 11 -25 21
-52 21 -16 0 -19 5 -16 25 3 14 1 28 -3 31 -9 5 -13 64 -5 64 2 0 16 -7 32
-15 16 -8 38 -12 49 -9 16 4 21 0 23 -18 4 -31 4 -38 -4 -73 -11 -48 -32 -65
-81 -65 -35 0 -43 -3 -43 -19 0 -10 -9 -30 -21 -45 -11 -14 -19 -30 -17 -35 4
-11 48 27 64 54 16 28 64 38 86 18 17 -15 20 -15 45 3 35 27 43 49 14 41 -30
-8 -36 10 -15 49 15 28 16 38 6 54 -18 29 -15 33 16 27 43 -9 57 5 30 30 -36
31 -46 35 -67 21 -16 -10 -27 -10 -54 0 -45 16 -50 15 -81 -9z"/>
<path d="M3067 874 c-33 -30 -27 -46 14 -37 l30 6 -7 -42 c-5 -34 -3 -44 11
-55 28 -20 12 -48 -22 -40 l-28 6 32 -32 c30 -32 33 -33 56 -17 31 20 78 9 93
-22 14 -27 53 -65 61 -58 3 3 -4 18 -15 34 -10 15 -22 38 -26 50 -6 18 -16 23
-54 25 -42 3 -47 6 -55 33 -5 17 -13 38 -18 47 -5 9 -6 31 -2 48 5 26 10 31
26 26 21 -5 57 9 69 28 13 20 22 -26 11 -55 -6 -16 -9 -38 -6 -49 4 -15 0 -20
-15 -20 -50 0 -67 -22 -31 -40 24 -13 80 -3 78 13 -4 33 3 57 15 57 24 0 29
20 12 39 -9 10 -16 24 -14 32 2 7 -14 22 -34 33 -32 18 -41 19 -58 8 -24 -15
-56 -16 -65 -2 -10 16 -29 11 -58 -16z"/>
<path d="M1210 830 c0 -12 28 -25 36 -17 3 3 -4 10 -15 17 -15 7 -21 7 -21 0z"/>
<path d="M3204 825 c-17 -13 -17 -14 -2 -15 9 0 20 5 23 11 11 17 0 20 -21 4z"/>
<path d="M1270 805 c0 -8 4 -15 10 -15 5 0 7 7 4 15 -4 8 -8 15 -10 15 -2 0
-4 -7 -4 -15z"/>
<path d="M1378 807 c-15 -16 -19 -60 -5 -73 10 -10 28 36 25 63 -3 25 -4 26
-20 10z"/>
<path d="M3034 803 c3 -10 8 -30 12 -45 8 -37 21 -35 26 2 3 20 -1 35 -12 45
-22 20 -33 19 -26 -2z"/>
<path d="M3156 811 c-4 -7 -5 -15 -2 -18 9 -9 19 4 14 18 -4 11 -6 11 -12 0z"/>
<path d="M1413 762 c-12 -53 -10 -60 12 -42 10 8 13 24 10 47 -6 50 -9 49 -22
-5z"/>
<path d="M3002 777 c-2 -17 -5 -33 -7 -35 -5 -6 26 -31 38 -32 4 0 3 9 -3 19
-5 11 -10 31 -10 45 0 37 -15 40 -18 3z"/>
<path d="M1238 773 c7 -3 16 -2 19 1 4 3 -2 6 -13 5 -11 0 -14 -3 -6 -6z"/>
<path d="M3188 773 c7 -3 16 -2 19 1 4 3 -2 6 -13 5 -11 0 -14 -3 -6 -6z"/>
<path d="M1472 743 c-19 -8 -4 -22 18 -16 11 3 17 9 14 14 -6 10 -12 10 -32 2z"/>
<path d="M2932 741 c-10 -6 -7 -10 12 -13 30 -6 45 7 20 16 -19 7 -16 8 -32
-3z"/>
<path d="M1479 687 c-10 -11 -24 -17 -32 -14 -15 6 -57 -26 -57 -44 0 -5 11
-7 24 -3 29 7 43 -11 19 -25 -27 -14 -7 -26 22 -13 17 8 25 20 25 37 0 24 2
26 38 19 20 -4 39 -11 41 -16 4 -11 49 -32 71 -33 11 0 14 -10 12 -43 -3 -37
-1 -42 17 -42 16 0 21 6 21 24 0 14 -4 28 -10 31 -15 9 -12 46 5 65 14 15 14
19 1 29 -11 10 -19 9 -35 -1 -26 -16 -56 -1 -56 28 0 28 -80 28 -106 1z"/>
<path d="M2850 685 c0 -31 -25 -43 -53 -26 -16 11 -22 10 -35 -3 -14 -14 -14
-17 1 -34 19 -21 22 -48 7 -57 -5 -3 -10 -17 -10 -31 0 -18 5 -24 21 -24 18 0
20 5 17 42 -2 24 1 43 7 43 22 2 60 19 70 31 5 7 26 14 45 16 28 2 35 -1 38
-17 2 -11 9 -26 14 -32 12 -15 48 -17 48 -3 0 6 -7 10 -15 10 -8 0 -15 4 -15
9 0 17 20 23 35 11 10 -8 15 -8 20 0 10 16 -34 60 -53 53 -8 -4 -21 2 -28 12
-10 13 -29 19 -64 22 -48 3 -50 1 -50 -22z"/>
<path d="M1375 679 c-11 -17 1 -21 15 -4 8 9 8 15 2 15 -6 0 -14 -5 -17 -11z"/>
<path d="M3048 670 c23 -21 30 -42 34 -99 4 -44 24 -51 30 -11 3 21 0 34 -9
37 -10 4 -11 9 -2 19 12 15 4 34 -15 34 -8 0 -16 9 -19 20 -3 11 -13 20 -23
20 -16 0 -15 -2 4 -20z"/>
<path d="M1245 640 c-3 -5 3 -10 14 -10 12 0 21 5 21 10 0 6 -6 10 -14 10 -8
0 -18 -4 -21 -10z"/>
<path d="M1330 640 c-13 -9 -13 -12 3 -21 16 -9 17 -12 3 -22 -10 -8 -13 -21
-9 -39 8 -41 19 -34 26 15 3 24 9 51 13 60 7 19 -12 23 -36 7z"/>
<path d="M3160 640 c0 -5 9 -10 21 -10 11 0 17 5 14 10 -3 6 -13 10 -21 10 -8
0 -14 -4 -14 -10z"/>
<path d="M2700 631 c0 -5 5 -13 10 -16 6 -3 10 -2 10 4 0 5 -4 13 -10 16 -5 3
-10 2 -10 -4z"/>
<path d="M1720 619 c0 -5 5 -7 10 -4 6 3 10 8 10 11 0 2 -4 4 -10 4 -5 0 -10
-5 -10 -11z"/>
<path d="M1285 610 c3 -5 8 -10 11 -10 2 0 4 5 4 10 0 6 -5 10 -11 10 -5 0 -7
-4 -4 -10z"/>
<path d="M1515 610 c4 -6 11 -8 16 -5 14 9 11 15 -7 15 -8 0 -12 -5 -9 -10z"/>
<path d="M2908 613 c7 -3 16 -2 19 1 4 3 -2 6 -13 5 -11 0 -14 -3 -6 -6z"/>
<path d="M3130 609 c0 -5 5 -7 10 -4 6 3 10 8 10 11 0 2 -4 4 -10 4 -5 0 -10
-5 -10 -11z"/>
<path d="M1240 601 c0 -10 30 -24 37 -17 3 2 -5 9 -16 16 -12 6 -21 7 -21 1z"/>
<path d="M1383 603 c-7 -3 -13 -17 -13 -33 0 -21 6 -29 25 -34 14 -4 25 -10
25 -15 0 -5 7 -17 16 -26 13 -12 13 -19 4 -30 -12 -15 -6 -35 11 -35 5 0 9 6
9 14 0 21 20 30 33 17 18 -18 27 -13 27 14 0 14 4 25 9 25 12 0 23 -29 15 -42
-4 -6 2 -8 12 -6 21 4 64 63 64 88 0 9 -6 25 -14 35 -14 19 -15 19 -35 -5 -11
-14 -20 -31 -21 -37 0 -15 -26 -17 -34 -4 -3 5 -22 9 -41 8 -36 -1 -72 23 -77
52 -2 10 -9 16 -15 14z"/>
<path d="M1758 582 c-4 -26 -1 -32 13 -32 10 0 21 -5 24 -10 3 -6 17 -7 31 -4
22 6 24 3 24 -30 0 -33 2 -36 19 -27 27 15 34 52 11 58 -22 6 -34 30 -19 39 6
4 6 11 -2 20 -15 18 -39 18 -39 -1 0 -20 -30 -19 -45 2 -11 14 -13 12 -17 -15z"/>
<path d="M1896 585 c9 -14 25 -25 35 -25 25 0 25 -26 0 -33 -12 -3 -21 -17
-25 -41 l-7 -37 -75 2 -75 2 6 27 c10 44 -44 84 -59 44 -4 -9 -5 -18 -4 -19 2
-1 12 -7 23 -13 15 -8 19 -19 16 -51 -2 -39 -1 -41 26 -41 16 0 38 7 49 15 24
18 29 18 49 -1 14 -15 18 -15 40 0 19 12 25 25 25 52 0 24 5 36 18 40 28 10
82 35 82 39 0 3 -129 65 -136 65 -3 0 3 -11 12 -25z"/>
<path d="M2488 581 c-31 -14 -57 -30 -58 -36 -1 -5 18 -18 42 -30 38 -18 43
-24 44 -54 0 -25 7 -37 27 -49 25 -15 27 -15 40 2 13 17 15 17 46 2 18 -10 42
-16 54 -14 18 3 21 9 20 45 -1 33 3 42 18 46 25 7 26 47 0 47 -26 0 -43 -24
-39 -57 l3 -28 -75 0 c-50 0 -75 4 -75 12 0 6 -3 15 -7 19 -5 4 -8 15 -8 25 0
9 -9 19 -20 22 -27 7 -25 27 3 27 18 0 56 36 45 44 -2 2 -29 -9 -60 -23z"/>
<path d="M2583 602 c-20 -13 -4 -60 23 -65 14 -2 27 0 30 4 3 5 16 9 29 9 22
0 23 2 12 31 -8 20 -13 25 -15 15 -4 -20 -41 -21 -48 -1 -7 17 -13 18 -31 7z"/>
<path d="M3170 600 c-8 -5 -12 -12 -9 -15 8 -8 39 5 39 16 0 11 -11 11 -30 -1z"/>
<path d="M3035 580 c-9 -27 -59 -52 -89 -44 -13 3 -27 1 -30 -5 -10 -15 -26
-14 -26 2 -1 6 -10 23 -20 36 -17 19 -23 21 -35 11 -22 -18 -18 -59 8 -97 25
-38 44 -42 49 -11 5 32 28 35 28 4 0 -28 9 -33 27 -15 13 13 33 4 33 -17 0
-16 16 -19 25 -4 4 6 1 18 -7 27 -10 13 -10 17 0 20 6 3 12 11 12 19 0 8 11
19 24 25 24 11 40 44 30 61 -9 14 -22 9 -29 -12z"/>
<path d="M1151 569 c-24 -26 -35 -69 -26 -108 4 -20 11 -28 21 -24 9 3 17 -5
24 -22 8 -22 15 -26 34 -21 14 3 26 1 28 -5 5 -16 35 0 41 23 5 16 11 19 31
14 28 -7 37 10 11 20 -10 4 -13 13 -10 25 5 16 -2 14 -43 -12 l-50 -31 -40 40
c-43 43 -41 62 8 62 14 0 31 5 37 11 7 7 18 2 35 -19 19 -23 29 -27 41 -20 10
5 17 20 17 33 0 26 -15 41 -25 25 -8 -12 -54 -2 -76 16 -22 19 -35 17 -58 -7z"/>
<path d="M3230 576 c-20 -18 -67 -29 -75 -16 -10 16 -22 12 -28 -10 -3 -11 3
-30 13 -42 l18 -22 27 32 c20 24 31 30 38 23 6 -6 20 -11 32 -11 11 0 27 -5
35 -10 13 -9 10 -15 -17 -39 -18 -15 -33 -33 -33 -39 0 -17 -18 -15 -48 7 -15
10 -38 24 -52 31 -23 12 -24 12 -11 -3 12 -15 10 -20 -10 -37 -23 -20 -23 -21
-3 -15 28 7 56 -4 50 -20 -5 -15 31 -28 40 -14 3 5 16 6 28 3 18 -4 25 -1 29
16 3 12 15 24 26 27 30 8 30 89 0 127 -23 29 -38 32 -59 12z"/>
<path d="M1475 570 c-3 -5 1 -10 9 -10 9 0 16 5 16 10 0 6 -4 10 -9 10 -6 0
-13 -4 -16 -10z"/>
<path d="M1530 569 c0 -5 5 -7 10 -4 6 3 10 8 10 11 0 2 -4 4 -10 4 -5 0 -10
-5 -10 -11z"/>
<path d="M2895 570 c3 -5 8 -10 11 -10 2 0 4 5 4 10 0 6 -5 10 -11 10 -5 0 -7
-4 -4 -10z"/>
<path d="M2935 570 c3 -5 13 -10 21 -10 8 0 12 5 9 10 -3 6 -13 10 -21 10 -8
0 -12 -4 -9 -10z"/>
<path d="M2540 529 c0 -20 21 -49 35 -49 16 0 19 18 9 44 -7 18 -44 22 -44 5z"/>
<path d="M1776 515 c4 -8 11 -15 16 -15 6 0 5 6 -2 15 -7 8 -14 15 -16 15 -2
0 -1 -7 2 -15z"/>
<path d="M1220 510 c0 -13 18 -22 24 -11 3 5 -1 11 -9 15 -8 3 -15 1 -15 -4z"/>
<path d="M2640 510 c0 -5 5 -10 10 -10 6 0 10 5 10 10 0 6 -4 10 -10 10 -5 0
-10 -4 -10 -10z"/>
<path d="M3197 513 c-10 -9 -9 -23 2 -23 5 0 11 7 15 15 5 15 -5 20 -17 8z"/>
<path d="M1180 495 c7 -8 16 -12 21 -9 13 8 1 24 -18 24 -13 0 -13 -3 -3 -15z"/>
<path d="M1989 508 c-5 -17 -2 -65 4 -61 4 2 7 11 7 19 0 19 40 18 67 -1 12
-8 28 -12 37 -9 20 8 11 24 -14 24 -10 0 -20 7 -24 15 -3 9 -19 15 -41 15 -19
0 -35 -1 -36 -2z"/>
<path d="M2121 497 c9 -6 21 -29 28 -49 7 -21 23 -46 37 -57 16 -13 20 -21 12
-24 -15 -5 -46 9 -67 30 -12 13 -12 16 0 23 17 11 5 24 -15 17 -8 -3 -16 -21
-18 -39 -3 -33 -3 -33 -53 -31 -77 2 -100 8 -103 26 -4 21 0 22 -64 -8 -61
-29 -104 -32 -136 -9 -17 12 -26 13 -36 4 -9 -7 -46 -10 -98 -8 l-83 3 41 22
c23 12 44 29 47 37 10 25 -38 1 -80 -39 -41 -39 -62 -44 -70 -15 -3 10 -15 26
-28 34 -20 13 -24 13 -29 1 -3 -8 -3 -21 0 -29 3 -8 1 -17 -5 -21 -6 -3 -15 5
-21 19 -5 14 -13 26 -17 26 -17 0 -35 -18 -29 -28 9 -16 -21 -21 -94 -15 -36
2 -80 4 -98 4 -28 0 -31 3 -21 15 8 10 9 21 1 41 -6 16 -13 37 -15 48 -3 11
-5 -13 -6 -52 l-1 -73 1120 0 1120 0 0 63 -1 62 -15 -34 c-8 -19 -12 -42 -9
-52 5 -14 0 -18 -27 -18 -18 0 -66 -2 -106 -5 -70 -5 -73 -4 -82 20 -12 31
-28 31 -40 -1 -12 -33 -34 -33 -26 -1 3 14 2 28 -4 31 -18 11 -49 -5 -52 -28
-5 -32 -29 -31 -66 3 -51 46 -82 61 -82 38 0 -7 20 -22 43 -33 l42 -20 -83 -3
c-52 -2 -89 1 -98 8 -10 9 -19 8 -36 -4 -31 -22 -73 -20 -140 8 -48 20 -58 21
-60 8 -3 -16 -37 -24 -108 -26 -42 -1 -45 1 -48 26 -3 28 -28 56 -39 44 -4 -4
-2 -11 5 -15 10 -6 5 -15 -18 -35 -35 -29 -39 -30 -59 -17 -11 7 -9 10 9 16
24 8 64 85 51 98 -5 5 -23 1 -40 -8 -31 -15 -34 -15 -89 9 -31 14 -50 20 -41
13z"/>
<path d="M2310 500 c-9 -6 -10 -10 -3 -10 6 0 15 5 18 10 8 12 4 12 -15 0z"/>
<path d="M2375 499 c-4 -5 -18 -15 -33 -20 -17 -7 -22 -13 -15 -20 8 -8 20 -6
41 5 44 23 70 20 75 -6 3 -14 5 -9 6 15 1 36 0 37 -33 37 -19 0 -38 -5 -41
-11z"/>
<path d="M3235 501 c-10 -17 12 -21 25 -6 10 12 10 15 -3 15 -9 0 -18 -4 -22
-9z"/>
<path d="M1639 483 c-7 -45 32 -106 54 -84 7 7 5 17 -9 32 -10 12 -18 30 -16
40 2 12 -3 19 -12 19 -9 0 -16 -3 -17 -7z"/>
<path d="M2767 484 c-3 -3 -3 -12 0 -20 3 -8 -2 -23 -12 -34 -9 -10 -14 -24
-10 -30 9 -15 45 17 45 41 0 10 5 21 10 24 6 4 8 11 5 16 -7 10 -29 12 -38 3z"/>
<path d="M1215 460 c-3 -6 1 -7 9 -4 18 7 21 14 7 14 -6 0 -13 -4 -16 -10z"/>
<path d="M1370 451 c0 -11 4 -21 9 -21 18 0 21 18 6 30 -13 10 -15 9 -15 -9z"/>
<path d="M3200 466 c0 -2 7 -7 16 -10 8 -3 12 -2 9 4 -6 10 -25 14 -25 6z"/>
<path d="M3047 454 c-8 -8 1 -24 14 -24 5 0 9 7 9 15 0 15 -12 20 -23 9z"/>
<path d="M1966 421 c-9 -13 51 -44 71 -37 12 5 13 9 3 21 -6 7 -18 11 -26 8
-8 -3 -21 0 -28 6 -9 8 -16 8 -20 2z"/>
<path d="M2060 420 c0 -5 5 -10 10 -10 6 0 10 5 10 10 0 6 -4 10 -10 10 -5 0
-10 -4 -10 -10z"/>
<path d="M2360 420 c0 -5 5 -10 10 -10 6 0 10 5 10 10 0 6 -4 10 -10 10 -5 0
-10 -4 -10 -10z"/>
<path d="M2455 420 c-4 -6 -14 -10 -23 -9 -32 3 -42 -1 -42 -16 0 -8 9 -15 19
-15 22 0 69 35 60 45 -4 3 -10 1 -14 -5z"/>
<path d="M1290 401 c0 -5 5 -13 10 -16 6 -3 10 -2 10 4 0 5 -4 13 -10 16 -5 3
-10 2 -10 -4z"/>
<path d="M3126 394 c-4 -10 -1 -14 6 -12 15 5 23 28 10 28 -5 0 -13 -7 -16
-16z"/>
<path d="M1805 390 c-3 -6 1 -7 9 -4 18 7 21 14 7 14 -6 0 -13 -4 -16 -10z"/>
<path d="M2600 396 c0 -2 9 -6 20 -9 11 -3 18 -1 14 4 -5 9 -34 13 -34 5z"/>
<path d="M1852 1148 c-32 -32 -3 -118 40 -118 37 0 57 80 28 115 -15 18 -51
20 -68 3z"/>
<path d="M2496 1144 c-32 -32 -8 -114 34 -114 45 0 66 63 34 108 -18 26 -46
28 -68 6z"/>
</g>
</svg>
